# xmcd
#
# Track frame offsets: 
#        150
#        23614
#        42475
#        59067
#        83079
#        97700
#        113965
#        128061
#        148714
#        164144
#        176228
#        197925
#        229457
#        246667
#        262751
#        279122
#        297616
#        309884
#        320515
#
# Disc length: 4482 seconds
#
# Revision: 4
# Processed by: cddbd v1.5.2PL0 Copyright (c) Steve Scherf et al.
# Submitted via: ExactAudioCopyFreeDBPlugin 1.0
#
DISCID=1e118013
DTITLE=Al Green - The Immortal Soul of Al Green [Hi Records box set]
DYEAR=2003
DGENRE=Soul
TTITLE0=Full of Fire
TTITLE1=I'd Fly Away
TTITLE2=That's the Way it Is
TTITLE3=Together Again
TTITLE4=Let it Shine
TTITLE5=Have a Good Time
TTITLE6=Keep Me Cryin'
TTITLE7=Nothing Takes the Place of You
TTITLE8=I Tried to Tell Myself
TTITLE9=The Truth Marches On
TTITLE10=Belle
TTITLE11=Georgia Boy
TTITLE12=Chariots of Fire
TTITLE13=Loving You
TTITLE14=All in All
TTITLE15=To Sir with Love
TTITLE16=Wait Here
TTITLE17=King of All
TTITLE18=Starting All Over Again
EXTD=YEAR: 2003
EXTT0=
EXTT1=
EXTT2=
EXTT3=
EXTT4=
EXTT5=
EXTT6=
EXTT7=
EXTT8=
EXTT9=
EXTT10=
EXTT11=
EXTT12=
EXTT13=
EXTT14=
EXTT15=
EXTT16=
EXTT17=
EXTT18=
PLAYORDER=
